<?xml version="1.0" encoding="utf-8"?>
<!-- Generator: Adobe Illustrator 21.0.0, SVG Export Plug-In . SVG Version: 6.00 Build 0)  -->
<svg version="1.1" id="图层_1" xmlns="http://www.w3.org/2000/svg" xmlns:xlink="http://www.w3.org/1999/xlink" x="0px" y="0px"
	 viewBox="0 0 100 100" enable-background="new 0 0 100 100" xml:space="preserve">
<path fill="#E04023" d="M98.1,41.6c-2.2-3.7-5.8-5.8-9.7-6.1l-25.9-0.1c2.1-5.2,3.3-10.9,3.3-17c0.3-6-1.1-18.7-12.2-18.5
	C47.2,0.1,42,5.4,42,12.1c0,0.9,0,1.4,0,1.4C42,26.9,32,37.8,19.4,39c0,0-12,0.1-16,0.1c-0.7,0-1.8,0.4-2.4,1.1
	c-0.6,0.6-1,1.5-1,2.5v53.7c0,1,0.5,1.9,1.1,2.6c0.6,0.6,1.3,1,2.2,1.1l0,0l0,0h0.1h77.7c1.8,0,4.4-0.9,6-2c3.9-3.1,4.5-5.5,5.3-9.4
	c2.1-10,7.7-39.6,7.7-39.6C100.1,46.4,99.5,43.9,98.1,41.6 M17.3,92.8H7V46.2h10.3V92.8 M85.7,86.6c-0.2,0.8-1.2,4.4-2.5,5.3
	c-1.2,0.9-2.6,0.9-2.6,0.9H24.2V45c10.8-3.3,20.5-11.2,23-22.6c0.8-3.6,1.5-11,1.5-11s0.3-4.6,4.7-4.6c2.5,0,4.7,1.7,5.3,5
	C59.6,16,59.8,20,57.3,29c-0.9,3.1-1.6,4.6-2.8,7c0,0-0.9,1.2-0.9,3.1c0,2,1.5,3.6,3.3,3.6l31.5,0.2c1.6,0,3.2,0.8,4.2,2.3
	c0.6,1,0.7,2,0.6,3.1L85.7,86.6"/>
<path fill="#FFD7A5" d="M85.7,86.6c-0.2,0.8-1.2,4.4-2.5,5.3c-1.2,0.9-2.6,0.9-2.6,0.9H24.2V45c10.8-3.3,20.5-11.2,23-22.6
	c0.8-3.6,1.5-11,1.5-11s0.3-4.6,4.7-4.6c2.5,0,4.7,1.7,5.3,5C59.6,16,59.8,20,57.3,29c-0.9,3.1-1.6,4.6-2.8,7c0,0-0.9,1.2-0.9,3.1
	c0,2,1.5,3.6,3.3,3.6l31.5,0.2c1.6,0,3.2,0.8,4.2,2.3c0.6,1,0.7,2,0.6,3.1L85.7,86.6"/>
<polyline fill="#F48700" points="17.3,92.8 7,92.8 7,46.2 17.3,46.2 17.3,92.8 "/>
</svg>
