<svg height="61" viewBox="0 0 120 61" width="120" xmlns="http://www.w3.org/2000/svg"><g fill="#d9d9d9" fill-rule="nonzero"><path d="m2.21162027.55272361h16.00000003c1.1045696 0 2 .89543051 2 2v11.99999999c0 1.1045696-.8954304 2-2 2h-5.4450296c-.2209139 0-.4-.179086-.4-.3999999 0-.0429928.0069311-.0857045.0205267-.1264911l.7540403-2.262121c.043806-.1314179.0164978-.2761457-.0721848-.3825648l-2.2475822-2.6970986c-.0700959-.0841151-.1026464-.1932872-.0900599-.3020546l.2688952-2.32368845-2.07643228 2.26280165c-.12456862.1357492-.14030027.3390266-.03810107.4923254l1.67800765 2.5170114c.0895732.1343598.0895732.3094004 0 .4437602l-1.73333336 2.6c-.07418632.1112795-.19907886.1781198-.33282013.1781198h-6.28592654c-1.10456949 0-2-.8954304-2-2v-11.99999999c0-1.10456949.89543051-2 2-2zm16.00000003 14.99999999c.5522848 0 1-.4477151 1-1v-11.99999998c0-.5522847-.4477152-1-1-1h-16.00000002c-.55228475 0-1 .4477153-1 1v11.99999998c0 .5522849.44771525 1 1 1h5.75074277c.13374128 0 .25863381-.0668403.33282012-.1781198l1.06666668-1.6c.08957317-.1343598.08957317-.3094004 0-.4437602l-1.70593046-2.5588956c-.09974565-.1496185-.08739162-.3474069.03019672-.4834505l3.53128949-4.08551896c.1805767-.2089179.4963244-.2318929.7052423-.0513163.1201386.103841.1838083.2585758.1715434.4168977l-.2767157 3.57199166c-.008051.1039265.0247851.2068906.0915166.2869684l2.2848206 2.7417847c.0886826.1064192.1159908.2511469.0721848.3825649l-.4914543 1.474363c-.0698591.2095773.0434048.4361053.2529822.5059644.0407866.0135956.0834983.0205266.1264911.0205266zm-13.50000001-7.99999997c-.82842712 0-1.5-.67157289-1.5-1.5 0-.82842709.67157288-1.5 1.5-1.5.82842714 0 1.5.67157291 1.5 1.5 0 .82842711-.67157286 1.5-1.5 1.5z"/><path d="m62.2116203 30.5527236h16c1.1045696 0 2 .8954305 2 2v12c0 1.1045696-.8954304 2-2 2h-5.4450296c-.2209139 0-.4-.179086-.4-.3999999 0-.0429928.0069311-.0857045.0205267-.1264911l.7540403-2.262121c.043806-.1314179.0164978-.2761457-.0721848-.3825648l-2.2475822-2.6970986c-.0700959-.0841151-.1026464-.1932872-.0900599-.3020546l.2688952-2.3236884-2.0764323 2.2628016c-.1245686.1357492-.1403002.3390266-.0381011.4923254l1.6780077 2.5170114c.0895732.1343598.0895732.3094004 0 .4437602l-1.7333334 2.6c-.0741863.1112795-.1990788.1781198-.3328201.1781198h-6.2859265c-1.1045695 0-2-.8954304-2-2v-12c0-1.1045695.8954305-2 2-2zm16 15c.5522848 0 1-.4477151 1-1v-12c0-.5522847-.4477152-1-1-1h-16c-.5522848 0-1 .4477153-1 1v12c0 .5522849.4477152 1 1 1h5.7507428c.1337412 0 .2586338-.0668403.3328201-.1781198l1.0666666-1.6c.0895732-.1343598.0895732-.3094004 0-.4437602l-1.7059304-2.5588956c-.0997457-.1496185-.0873916-.3474069.0301967-.4834505l3.5312895-4.085519c.1805767-.2089179.4963244-.2318929.7052423-.0513163.1201386.103841.1838083.2585758.1715434.4168977l-.2767157 3.5719917c-.008051.1039265.0247851.2068906.0915166.2869684l2.2848206 2.7417847c.0886826.1064192.1159908.2511469.0721848.3825649l-.4914543 1.474363c-.0698591.2095773.0434048.4361053.2529822.5059644.0407866.0135956.0834983.0205266.1264911.0205266zm-13.5-8c-.8284271 0-1.5-.6715729-1.5-1.5s.6715729-1.5 1.5-1.5 1.5.6715729 1.5 1.5-.6715729 1.5-1.5 1.5z"/></g></svg>