<?xml version="1.0" encoding="UTF-8"?>
<svg viewBox="0 0 37 37" version="1.1" xmlns="http://www.w3.org/2000/svg" xmlns:xlink="http://www.w3.org/1999/xlink">
    <!-- Generator: Sketch 55.2 (78181) - https://sketchapp.com -->
    <title>警告</title>
    <desc>Created with Sketch.</desc>
    <g id="页面-1" stroke="none" stroke-width="1" fill="none" fill-rule="evenodd">
        <g id="Tips" transform="translate(-499.000000, -384.000000)" fill="#FFFFFF" fill-rule="nonzero">
            <path d="M517.5,421 C507.282732,421 499,412.717268 499,402.5 C499,392.282732 507.282732,384 517.5,384 C527.717268,384 536,392.282732 536,402.5 C536,412.717268 527.717268,421 517.5,421 Z M517.5,418 C526.060414,418 533,411.060414 533,402.5 C533,393.939586 526.060414,387 517.5,387 C508.939586,387 502,393.939586 502,402.5 C502,411.060414 508.939586,418 517.5,418 Z M517.5,415 C516.118333,415 515,413.883705 515,412.502499 C515,411.121293 516.118333,410 517.5,410 C518.88,410 520,411.121293 520,412.502499 C520,413.883705 518.88,415 517.5,415 Z M515,403.45 L515,391.5483 C515,390.1424 516.118333,389 517.5,389 C518.88,389 520,390.1424 520,391.5483 L520,403.45 C520,404.8576 518.88,406 517.5,406 C516.118333,406 515,404.8576 515,403.45 Z" id="警告"></path>
        </g>
    </g>
</svg>