<?xml version="1.0" encoding="UTF-8"?>
<svg viewBox="0 0 37 37" version="1.1" xmlns="http://www.w3.org/2000/svg" xmlns:xlink="http://www.w3.org/1999/xlink">
    <!-- Generator: Sketch 55.2 (78181) - https://sketchapp.com -->
    <title>编组 16</title>
    <desc>Created with Sketch.</desc>
    <g id="页面-1" stroke="none" stroke-width="1" fill="none" fill-rule="evenodd">
        <g id="Tips" transform="translate(-271.000000, -384.000000)">
            <g id="编组-16" transform="translate(271.000000, 384.000000)">
                <g id="编组-15备份" fill="currentColor">
                    <circle id="椭圆形" cx="18.5" cy="18.5" r="18.5"></circle>
                </g>
                <path d="M11.6601737,13.8783592 L11,13.8783592 C11,11.4844331 11.7221616,9.60811272 13.235262,8.24939794 C14.7139738,6.89068315 16.4677948,6 19.0125546,6 C21.2478166,6 23.3111354,6.76128174 24.6866812,7.92589441 C26.0622271,9.05815674 26.75,10.6109736 26.75,12.5843451 C26.75,14.2018627 26.3029476,15.5282272 25.4776201,16.5634384 C25.2633524,16.7874024 24.719442,17.2749548 23.8572997,18.0046267 L22.2150087,19.407964 C21.1010282,20.5280061 20.6746725,21.6218495 20.6746725,22.3982579 L20.6746725,22.8511629 L20.67064,22.8511629 C20.6051153,23.819783 19.7492441,24.5863258 18.7030568,24.5863258 C17.6568694,24.5863258 16.8009982,23.819783 16.7354736,22.8511629 L16.7199782,22.8511629 L16.7199782,22.3982579 C16.7199782,21.1689445 16.92631,20.5327211 17.4077511,19.6592616 C17.8548035,18.785802 19.1501092,17.4368979 21.3853712,15.5605775 L21.7980349,15.1076726 C22.4170306,14.3959648 22.7265284,13.6195564 22.7265284,12.8107976 C22.7265284,11.743236 22.4170306,10.7838732 21.7980349,10.1692165 C21.1446507,9.55455985 20.1817686,8.9902806 19.0125546,8.9902806 C17.4994541,8.9902806 16.4334061,9.80221484 15.7800218,10.7080247 C15.1954148,11.4520828 14.9203057,12.5196444 14.9203057,13.8783592 L14.1593965,13.8783592 C14.6169797,13.5526113 14.9203057,13.3067273 14.9203057,13.8783592 C14.9203057,14.8967558 14.0427154,15.7223293 12.9601528,15.7223293 C11.8775903,15.7223293 11,14.8967558 11,13.8783592 C11,13.3067273 11.2496687,13.5526113 11.6601735,13.8783592 Z M18.77,30.9388258 C17.5232172,30.9388258 16.5125,29.9281086 16.5125,28.6813258 C16.5125,27.4345429 17.5232172,26.4238258 18.77,26.4238258 C20.0167828,26.4238258 21.0275,27.4345429 21.0275,28.6813258 C21.0275,29.9281086 20.0167828,30.9388258 18.77,30.9388258 Z" id="形状结合" fill="#FFFFFF" fill-rule="nonzero"></path>
            </g>
        </g>
    </g>
</svg>