<?xml version="1.0" encoding="UTF-8"?>
<svg viewBox="0 0 37 37" version="1.1" xmlns="http://www.w3.org/2000/svg" xmlns:xlink="http://www.w3.org/1999/xlink">
    <!-- Generator: Sketch 55.2 (78181) - https://sketchapp.com -->
    <title>问号</title>
    <desc>Created with Sketch.</desc>
    <g id="页面-1" stroke="none" stroke-width="1" fill="none" fill-rule="evenodd">
        <g id="Tips" transform="translate(-381.000000, -384.000000)" fill="#FFFFFF" fill-rule="nonzero">
            <path d="M399.5,421 C389.282732,421 381,412.717268 381,402.5 C381,392.282732 389.282732,384 399.5,384 C409.717268,384 418,392.282732 418,402.5 C418,412.717268 409.717268,421 399.5,421 Z M399.5,418 C408.060414,418 415,411.060414 415,402.5 C415,393.939586 408.060414,387 399.5,387 C390.939586,387 384,393.939586 384,402.5 C384,411.060414 390.939586,418 399.5,418 Z M392.660174,397.878359 L392,397.878359 C392,395.484433 392.722162,393.608113 394.235262,392.249398 C395.713974,390.890683 397.467795,390 400.012555,390 C402.247817,390 404.311135,390.761282 405.686681,391.925894 C407.062227,393.058157 407.75,394.610974 407.75,396.584345 C407.75,398.201863 407.302948,399.528227 406.47762,400.563438 C406.263352,400.787402 405.719442,401.274955 404.8573,402.004627 L403.215009,403.407964 C402.101028,404.528006 401.674672,405.621849 401.674672,406.398258 L401.674672,406.851163 L401.67064,406.851163 C401.605115,407.819783 400.749244,408.586326 399.703057,408.586326 C398.656869,408.586326 397.800998,407.819783 397.735474,406.851163 L397.719978,406.851163 L397.719978,406.398258 C397.719978,405.168945 397.92631,404.532721 398.407751,403.659262 C398.854803,402.785802 400.150109,401.436898 402.385371,399.560578 L402.798035,399.107673 C403.417031,398.395965 403.726528,397.619556 403.726528,396.810798 C403.726528,395.743236 403.417031,394.783873 402.798035,394.169217 C402.144651,393.55456 401.181769,392.990281 400.012555,392.990281 C398.499454,392.990281 397.433406,393.802215 396.780022,394.708025 C396.195415,395.452083 395.920306,396.519644 395.920306,397.878359 L395.159397,397.878359 C395.61698,397.552611 395.920306,397.306727 395.920306,397.878359 C395.920306,398.896756 395.042715,399.722329 393.960153,399.722329 C392.87759,399.722329 392,398.896756 392,397.878359 C392,397.306727 392.249669,397.552611 392.660174,397.878359 Z M399.77,414.938826 C398.523217,414.938826 397.5125,413.928109 397.5125,412.681326 C397.5125,411.434543 398.523217,410.423826 399.77,410.423826 C401.016783,410.423826 402.0275,411.434543 402.0275,412.681326 C402.0275,413.928109 401.016783,414.938826 399.77,414.938826 Z" id="问号"></path>
        </g>
    </g>
</svg>