<?xml version="1.0" encoding="UTF-8"?>
<svg viewBox="0 0 37 37" version="1.1" xmlns="http://www.w3.org/2000/svg" xmlns:xlink="http://www.w3.org/1999/xlink">
    <!-- Generator: Sketch 55.2 (78181) - https://sketchapp.com -->
    <title>成功</title>
    <desc>Created with Sketch.</desc>
    <g id="页面-1" stroke="none" stroke-width="1" fill="none" fill-rule="evenodd">
        <g id="Tips" transform="translate(-442.000000, -384.000000)" fill="#FFFFFF" fill-rule="nonzero">
            <path d="M460.5,421 C450.282732,421 442,412.717268 442,402.5 C442,392.282732 450.282732,384 460.5,384 C470.717268,384 479,392.282732 479,402.5 C479,412.717268 470.717268,421 460.5,421 Z M460.5,418 C469.060414,418 476,411.060414 476,402.5 C476,393.939586 469.060414,387 460.5,387 C451.939586,387 445,393.939586 445,402.5 C445,411.060414 451.939586,418 460.5,418 Z M458.69821,405.317178 L468.569751,395.445637 C469.515607,394.499781 471.031659,394.480532 471.953797,395.40267 C472.877049,396.325922 472.856686,397.840861 471.910831,398.786716 L460.487458,410.210089 C460.042921,410.654626 459.472125,410.894494 458.896129,410.927685 C458.203577,411.008356 457.482273,410.783399 456.9519,410.253026 L449.154934,402.45606 C448.232796,401.533923 448.232796,400.037119 449.154934,399.114981 C450.078185,398.191729 451.573875,398.192843 452.496013,399.114981 L458.69821,405.317178 Z" id="成功"></path>
        </g>
    </g>
</svg>