<?xml version="1.0" encoding="UTF-8"?>
<svg viewBox="0 0 37 37" version="1.1" xmlns="http://www.w3.org/2000/svg" xmlns:xlink="http://www.w3.org/1999/xlink">
    <!-- Generator: Sketch 55.2 (78181) - https://sketchapp.com -->
    <title>编组 14</title>
    <desc>Created with Sketch.</desc>
    <g id="页面-1" stroke="none" stroke-width="1" fill="none" fill-rule="evenodd">
        <g id="Tips" transform="translate(-100.000000, -384.000000)">
            <g id="编组-14" transform="translate(100.000000, 384.000000)">
                <circle id="椭圆形" fill="currentColor" cx="18.5" cy="18.5" r="18.5"></circle>
                <path d="M18.5,5 C19.8816667,5 21,6.11629457 21,7.49750083 C21,8.8787071 19.8816667,10 18.5,10 C17.12,10 16,8.8787071 16,7.49750083 C16,6.11629457 17.12,5 18.5,5 Z M21,16.55 L21,28.4517 C21,29.8576 19.8816667,31 18.5,31 C17.12,31 16,29.8576 16,28.4517 L16,16.55 C16,15.1424 17.12,14 18.5,14 C19.8816667,14 21,15.1424 21,16.55 Z" id="形状结合" fill="#FFFFFF"></path>
            </g>
        </g>
    </g>
</svg>