<?xml version="1.0" encoding="UTF-8"?>
<svg viewBox="0 0 37 37" version="1.1" xmlns="http://www.w3.org/2000/svg" xmlns:xlink="http://www.w3.org/1999/xlink">
    <!-- Generator: Sketch 55.2 (78181) - https://sketchapp.com -->
    <title>提示</title>
    <desc>Created with Sketch.</desc>
    <g id="页面-1" stroke="none" stroke-width="1" fill="none" fill-rule="evenodd">
        <g id="Tips" transform="translate(-328.000000, -384.000000)" fill="#FFFFFF" fill-rule="nonzero">
            <path d="M346.5,421 C336.282732,421 328,412.717268 328,402.5 C328,392.282732 336.282732,384 346.5,384 C356.717268,384 365,392.282732 365,402.5 C365,412.717268 356.717268,421 346.5,421 Z M346.5,418 C355.060414,418 362,411.060414 362,402.5 C362,393.939586 355.060414,387 346.5,387 C337.939586,387 331,393.939586 331,402.5 C331,411.060414 337.939586,418 346.5,418 Z M346.5,389 C347.881667,389 349,390.116295 349,391.497501 C349,392.878707 347.881667,394 346.5,394 C345.12,394 344,392.878707 344,391.497501 C344,390.116295 345.12,389 346.5,389 Z M349,400.55 L349,412.4517 C349,413.8576 347.881667,415 346.5,415 C345.12,415 344,413.8576 344,412.4517 L344,400.55 C344,399.1424 345.12,398 346.5,398 C347.881667,398 349,399.1424 349,400.55 Z" id="提示"></path>
        </g>
    </g>
</svg>