<?xml version="1.0" encoding="utf-8"?>
<!-- Generator: Adobe Illustrator 21.0.0, SVG Export Plug-In . SVG Version: 6.00 Build 0)  -->
<svg version="1.1" id="图层_1" xmlns="http://www.w3.org/2000/svg" xmlns:xlink="http://www.w3.org/1999/xlink" x="0px" y="0px"
	 viewBox="0 0 100 100" enable-background="new 0 0 100 100" xml:space="preserve">
<g>
	<path fill="#ED3714" d="M50,3.6c25.8,0,46.4,20.6,46.4,46.4S75.8,96.4,50,96.4S3.6,75.8,3.6,50S24.2,3.6,50,3.6"/>
	<path fill="#FFFFFF" d="M50,100c-13.4,0-26-5.2-35.4-14.6S0,63.4,0,50s5.2-26,14.6-35.4S36.6,0,50,0s26,5.2,35.4,14.6
		S100,36.6,100,50s-5.2,26-14.6,35.4S63.4,100,50,100z M50,7.2C26.4,7.2,7.2,26.4,7.2,50S26.4,92.8,50,92.8S92.8,73.6,92.8,50
		S73.6,7.2,50,7.2z"/>
</g>
<g>
	<g>
		<path fill="#FFFFFF" d="M79.9,40.7H60.3L50,17L39.7,40.7H20.1l14.4,16.5l-5.2,21.6L79.9,40.7z M43.8,46.9L50,34.5l5.2,12.4h5.2
			L40.7,62.4l2.1-6.2l-7.2-9.3H43.8L43.8,46.9z M52.1,69.6l20.6,9.3l-5.2-22.7L52.1,69.6z"/>
	</g>
</g>
</svg>
