<?xml version="1.0" encoding="utf-8"?>
<!-- Generator: Adobe Illustrator 21.0.0, SVG Export Plug-In . SVG Version: 6.00 Build 0)  -->
<svg version="1.1" id="图层_1" xmlns="http://www.w3.org/2000/svg" xmlns:xlink="http://www.w3.org/1999/xlink" x="0px" y="0px"
	 viewBox="0 0 100 100" enable-background="new 0 0 100 100" xml:space="preserve">
<path fill="#F880AB" d="M50,0c27.6,0,50,22.4,50,50s-22.4,50-50,50C22.4,100,0,77.6,0,50S22.4,0,50,0z"/>
<path fill="#FFFFFF" d="M55.1,23.2C43,23.2,33.3,33,33.3,45c0,4.8,1.6,9.2,4.2,12.8l-3.1,3.1l-5.7-5.7c0,0-2.3-2.3-4.6,0
	c-2.3,2.3,0,4.6,0,4.6l5.7,5.7l-5.7,5.7l4.6,4.6l5.7-5.7l5.7,5.7c0,0,2.3,2.3,4.6,0c2.3-2.3,0-4.6,0-4.6L39,65.5l3.1-3.1
	c3.6,2.7,8.1,4.3,13,4.3c12,0,21.8-9.8,21.8-21.8C76.8,33,67.1,23.2,55.1,23.2 M54.8,60.1c-8.3,0-15.1-6.8-15.1-15.1
	S46.5,30,54.8,30s15.1,6.7,15.1,15.1S63.2,60.1,54.8,60.1"/>
</svg>
