<?xml version="1.0" encoding="utf-8"?>
<!-- Generator: Adobe Illustrator 21.0.0, SVG Export Plug-In . SVG Version: 6.00 Build 0)  -->
<svg version="1.1" id="图层_1" xmlns="http://www.w3.org/2000/svg" xmlns:xlink="http://www.w3.org/1999/xlink" x="0px" y="0px"
	 viewBox="0 0 100 100" enable-background="new 0 0 100 100" xml:space="preserve">
<path fill="#77C2F9" d="M50,0c27.6,0,50,22.4,50,50s-22.4,50-50,50S0,77.6,0,50S22.4,0,50,0z"/>
<path fill="#FFFFFF" d="M73.6,23.5H59c-1.6,0-2.9,1.3-2.9,2.9c0,1.6,1.3,2.9,2.9,2.9h7.6l-8.2,8.2c-3.7-2.8-8.2-4.5-13.2-4.5
	c-12,0-21.8,9.7-21.8,21.8c0,12,9.7,21.8,21.8,21.8S67,66.8,67,54.8c0-4.9-1.7-9.5-4.4-13.1l8.1-8.2V41c0,1.6,1.3,2.9,2.9,2.9
	s2.9-1.3,2.9-2.9V26.4C76.6,24.8,75.2,23.5,73.6,23.5 M45.1,69.9c-8.4,0-15.1-6.8-15.1-15.1c0-8.3,6.8-15.1,15.1-15.1
	c8.4,0,15.1,6.8,15.1,15.1C60.2,63.1,53.5,69.9,45.1,69.9"/>
</svg>
