<?xml version="1.0" encoding="utf-8"?>
<!-- Generator: Adobe Illustrator 21.0.0, SVG Export Plug-In . SVG Version: 6.00 Build 0)  -->
<svg version="1.1" id="图层_1" xmlns="http://www.w3.org/2000/svg" xmlns:xlink="http://www.w3.org/1999/xlink" x="0px" y="0px"
	 viewBox="0 0 100 100" enable-background="new 0 0 100 100" xml:space="preserve">
<g>
	<path fill="#FD5093" d="M50,3.6c25.5,0,46.4,20.9,46.4,46.4S75.5,96.4,50,96.4S3.6,75.5,3.6,50S24.5,3.6,50,3.6"/>
	<path fill="#FFFFFF" d="M50,100C22.4,100,0,77.6,0,50S22.4,0,50,0s50,22.4,50,50S77.6,100,50,100z M50,7.2
		C26.4,7.2,7.2,26.4,7.2,50S26.4,92.8,50,92.8S92.8,73.6,92.8,50S73.6,7.2,50,7.2z"/>
</g>
<g>
	<g>
		<path fill="#FFFFFF" d="M75.5,41V24.9c-15.2,1.6-21.8,38-21.8,38H47c0,0-7.3-36.4-22.5-38V41c0,0,7.6,17.4,15.8,21.8v6H34L30.9,72
			v3.2h7L41,72h19l3.2,3.2h6.3V72l-3.2-3.2h-6v-6C68.2,58.7,75.5,41,75.5,41z"/>
	</g>
</g>
</svg>
