<?xml version="1.0" encoding="utf-8"?>
<!-- Generator: Adobe Illustrator 21.0.0, SVG Export Plug-In . SVG Version: 6.00 Build 0)  -->
<svg version="1.1" id="图层_1" xmlns="http://www.w3.org/2000/svg" xmlns:xlink="http://www.w3.org/1999/xlink" x="0px" y="0px"
	 viewBox="0 0 100 100" enable-background="new 0 0 100 100" xml:space="preserve">
<path id="Oval" fill="#FDFF5D" d="M93,50C93,26,74,7,50,7C26,7,7,26,7,50s19,43,43,43C73,93,93,73,93,50z M0,50C0,22,22,0,50,0
	s50,22,50,50s-22,50-50,50S0,77,0,50z"/>
<path id="Oval-Copy" fill="#E21D02" d="M93,50C93,26,74,7,50,7C26,7,7,26,7,50s19,43,43,43C73,93,93,73,93,50z"/>
<polygon id="path-1_2_" fill="none" stroke="#CF2F00" stroke-width="0.5" points="26,33 36,33 50,62 64,33 74,33 55,74 45,74 "/>
<polygon id="Path-6-Copy-6" fill="#FEFF5D" points="26,33 36,33 50,62 64,33 74,33 55,74 45,74 "/>
</svg>
