<?xml version="1.0" encoding="utf-8"?>
<!-- Generator: Adobe Illustrator 21.0.0, SVG Export Plug-In . SVG Version: 6.00 Build 0)  -->
<svg version="1.1" id="图层_1" xmlns="http://www.w3.org/2000/svg" xmlns:xlink="http://www.w3.org/1999/xlink" x="0px" y="0px"
	 viewBox="0 0 100 100" enable-background="new 0 0 100 100" xml:space="preserve">
<g id="g238">
	<g>
		<path id="path240" fill="#FFFFFF" d="M7.4,64.7c0,11.6,15.2,21.1,33.9,21.1
			c18.7,0,33.9-9.4,33.9-21.1c0-11.6-15.2-21.1-33.9-21.1C22.5,43.6,7.4,53.1,7.4,64.7"/>
		<path id="path242" fill="#D52B2A" d="M75.1,48c-1.4-0.4-2.4-0.7-1.6-2.6c1.6-4,1.8-7.5,0-10
			c-3.2-4.6-12.1-4.4-22.3-0.1c0,0-3.2,1.4-2.4-1.1c1.6-5,1.3-9.3-1.1-11.7c-5.5-5.5-20.2,0.2-32.8,12.8C5.5,44.8,0,54.8,0,63.4
			C0,80,21.2,90,42,90c27.2,0,45.3-15.8,45.3-28.3C87.2,54.1,80.9,49.8,75.1,48z M42,84.1c-16.6,1.6-30.8-5.8-31.9-16.7
			c-1.1-10.9,11.5-21,28-22.6C54.7,43.1,69,50.6,70,61.4C71.1,72.3,58.6,82.4,42,84.1z"/>
	</g>
	<g>
		<path id="path244" fill="#E89214" d="M93.2,17.7C86.6,10.5,76.9,7.7,68,9.6h0
			c-2.1,0.4-3.4,2.5-2.9,4.5c0.4,2.1,2.5,3.4,4.5,2.9c6.4-1.4,13.2,0.6,17.9,5.8c4.7,5.2,5.9,12.2,3.9,18.4l0,0
			c-0.7,2,0.4,4.2,2.5,4.8c2,0.7,4.2-0.4,4.8-2.5c0,0,0,0,0,0C101.5,34.9,99.8,25,93.2,17.7"/>
		<path id="path246" fill="#E89214" d="M83.1,26.8c-3.2-3.5-7.9-4.9-12.3-4
			c-1.8,0.4-2.9,2.1-2.5,3.9c0.4,1.8,2.1,2.9,3.9,2.5v0c2.1-0.4,4.4,0.2,6,1.9c1.6,1.7,2,4.1,1.3,6.2h0c-0.6,1.7,0.4,3.6,2.1,4.2
			c1.7,0.6,3.6-0.4,4.1-2.1C87.2,35.2,86.3,30.4,83.1,26.8"/>
	</g>
	<path id="path250" fill="#040000" d="M43.7,53.1c-7.9-2-16.8,1.9-20.2,8.8
		C20,69,23.3,76.8,31.3,79.4c8.2,2.7,18-1.4,21.3-9.1C56,62.9,51.8,55.2,43.7,53.1z M37.6,71.2c-1.6,2.6-5,3.7-7.6,2.5
		c-2.5-1.2-3.3-4.1-1.7-6.6c1.6-2.5,4.9-3.6,7.5-2.5C38.4,65.6,39.2,68.6,37.6,71.2z M42.9,64.4c-0.6,1-1.9,1.5-2.9,1.1
		c-1-0.4-1.3-1.5-0.7-2.5c0.6-1,1.8-1.4,2.8-1C43.1,62.3,43.5,63.4,42.9,64.4z"/>
</g>
</svg>
